<svg width="23" height="25" viewBox="0 0 23 25" fill="none" xmlns="http://www.w3.org/2000/svg">
<path d="M11.5451 13.78C11.6956 13.7814 11.8449 13.7529 11.9844 13.6962C12.1239 13.6395 12.2507 13.5557 12.3576 13.4497C12.4646 13.3437 12.5494 13.2176 12.6073 13.0786C12.6653 12.9397 12.6951 12.7906 12.6951 12.64V1.15005C12.6934 0.845695 12.5711 0.554419 12.3551 0.340049C12.2493 0.232623 12.1232 0.147257 11.9841 0.0888949C11.8451 0.030533 11.6959 0.000334882 11.5451 4.92219e-05C11.394 -0.0013732 11.2443 0.0280473 11.105 0.0865097C10.9657 0.144972 10.8398 0.231246 10.7351 0.340049C10.6263 0.444825 10.54 0.570705 10.4815 0.709983C10.4231 0.849261 10.3936 0.999006 10.3951 1.15005V12.64C10.3951 12.7906 10.4249 12.9397 10.4828 13.0786C10.5407 13.2176 10.6256 13.3437 10.7325 13.4497C10.8394 13.5557 10.9663 13.6395 11.1057 13.6962C11.2452 13.7529 11.3945 13.7814 11.5451 13.78V13.78Z" fill="#B3B3B3"/>
<path d="M16.815 2.42028C16.5421 2.28293 16.2262 2.25781 15.935 2.35028C15.7911 2.39617 15.6578 2.4702 15.5428 2.56805C15.4278 2.6659 15.3334 2.78563 15.265 2.92028C15.1243 3.19188 15.0956 3.50776 15.185 3.80028C15.2816 4.08873 15.4858 4.32876 15.755 4.47028C16.8953 5.0557 17.9005 5.87319 18.7061 6.87022C19.5117 7.86725 20.0998 9.02178 20.4326 10.2596C20.7654 11.4975 20.8356 12.7912 20.6386 14.0578C20.4417 15.3244 19.982 16.5358 19.289 17.6141C18.596 18.6924 17.6852 19.6139 16.6149 20.3192C15.5446 21.0246 14.3386 21.4983 13.0744 21.7098C11.8102 21.9213 10.5157 21.8661 9.27409 21.5475C8.0325 21.229 6.87127 20.6543 5.86501 19.8603C4.65532 18.9096 3.70369 17.6703 3.09738 16.2563C2.49107 14.8422 2.24949 13.2985 2.3948 11.7668C2.54011 10.2351 3.06765 8.76441 3.92905 7.48957C4.79044 6.21473 5.95812 5.17657 7.32501 4.47028C7.45997 4.40244 7.57921 4.30706 7.67501 4.19028C7.77104 4.07445 7.84555 3.94237 7.89501 3.80028C7.92438 3.65171 7.92438 3.49884 7.89501 3.35028C7.88114 3.2009 7.84049 3.05525 7.77501 2.92028C7.70718 2.78531 7.61179 2.66608 7.49501 2.57028C7.37698 2.47202 7.24119 2.39734 7.09501 2.35028C6.95331 2.30368 6.80355 2.28666 6.65501 2.30028C6.50185 2.31077 6.35229 2.35155 6.21501 2.42028C3.92721 3.60255 2.10291 5.5191 1.03484 7.86239C-0.0332276 10.2057 -0.283136 12.8398 0.325218 15.3422C0.933573 17.8445 2.36492 20.0699 4.38957 21.6613C6.41422 23.2527 8.91479 24.1178 11.49 24.1178C14.0652 24.1178 16.5658 23.2527 18.5904 21.6613C20.6151 20.0699 22.0464 17.8445 22.6548 15.3422C23.2632 12.8398 23.0132 10.2057 21.9452 7.86239C20.8771 5.5191 19.0528 3.60255 16.765 2.42028H16.815Z" fill="#CDCCCC"/>
</svg>
